<svg xmlns="http://www.w3.org/2000/svg" width="24" height="24" fill="none" stroke="currentColor" stroke-width="2" stroke-linecap="round" stroke-linejoin="round"><path d="M4.477 3.073c-.671.176-1.239.75-1.417 1.435C3.01 4.698 3 5.123 3 7c0 2.455.003 2.491.225 2.93.136.269.576.709.845.845.439.222.475.225 2.93.225s2.491-.003 2.93-.225c.266-.135.708-.575.841-.838.225-.443.229-.495.228-2.923 0-2.413-.008-2.518-.218-2.931-.135-.267-.484-.634-.764-.802-.453-.273-.493-.276-3.017-.276-2.008 0-2.289.007-2.523.068m12.218-.016a1.04 1.04 0 0 0-.567.459l-.108.184-.012 1.15L15.995 6h-1.051c-1.147 0-1.301.022-1.562.221-.08.061-.195.194-.254.295-.091.156-.108.23-.108.484 0 .256.016.328.111.489.061.103.173.236.25.294.261.2.357.213 1.527.215L15.995 8l.013 1.153.012 1.154.121.196a.998.998 0 0 0 1.718 0l.121-.196.012-1.154L18.005 8l1.087-.002c1.17-.002 1.266-.015 1.527-.215.077-.058.189-.191.25-.294.095-.161.111-.233.111-.489 0-.254-.017-.328-.108-.484a1.209 1.209 0 0 0-.254-.295C20.357 6.022 20.203 6 19.056 6h-1.051l-.013-1.15-.012-1.15-.108-.184a1.005 1.005 0 0 0-1.177-.459M9 7v2H5V5h4v2m-4.523 6.073c-.671.176-1.239.75-1.417 1.435-.05.19-.06.615-.06 2.492 0 2.455.003 2.491.225 2.93.136.269.576.709.845.845.439.222.475.225 2.93.225s2.491-.003 2.93-.225c.266-.135.708-.575.841-.838.225-.443.229-.495.228-2.923 0-2.413-.008-2.518-.218-2.931-.135-.267-.484-.634-.764-.802-.453-.273-.493-.276-3.017-.276-2.008 0-2.289.007-2.523.068m10 0c-.671.176-1.239.75-1.417 1.435-.05.19-.06.615-.06 2.492 0 2.455.003 2.491.225 2.93.136.269.576.709.845.845.439.222.475.225 2.93.225s2.491-.003 2.93-.225c.266-.135.708-.575.841-.838.225-.443.229-.495.228-2.923 0-2.413-.008-2.518-.218-2.931-.135-.267-.484-.634-.764-.802-.453-.273-.493-.276-3.017-.276-2.008 0-2.289.007-2.523.068M9 17v2H5v-4h4v2m10 0v2h-4v-4h4v2" fill-rule="evenodd" fill="#000" stroke="none"/></svg>