<svg xmlns="http://www.w3.org/2000/svg" viewBox="0 0 90 90"><path d="M53.101.163c-3.397.327-6.79 1.487-9.364 3.2C39.792 5.99 37.232 9.886 36.095 15c-.584 2.624-.695 4.454-.695 11.512V33H21.6v16.05h13.8V90h16.65V49.05h6.83c5.329 0 6.844-.041 6.895-.188.036-.103.525-3.697 1.088-7.987l1.022-7.8-7.917-.039-7.918-.039.001-5.961c0-3.278.062-6.332.137-6.786.334-2.024 1.252-3.466 2.711-4.26 1.558-.848 1.857-.884 7.914-.951l5.587-.062V.643L66.412.467C61.421.025 55.862-.102 53.101.163" fill="currentColor" fill-rule="evenodd"/></svg>