<svg xmlns="http://www.w3.org/2000/svg" width="24" height="24" fill="none" stroke="currentColor" stroke-width="2" stroke-linecap="round" stroke-linejoin="round"><path d="M4.402 2.045c-.312.053-.608.2-.844.421-.242.226-.38.448-.483.779C3.003 3.479 3 3.774 3 12s.003 8.521.075 8.755c.103.328.24.552.476.773a1.656 1.656 0 0 0 1.715.361c.342-.13 14.967-8.572 15.179-8.762.129-.115.244-.275.343-.475.138-.279.149-.329.149-.652s-.011-.373-.149-.652a1.541 1.541 0 0 0-.344-.475c-.23-.205-14.956-8.695-15.215-8.772a1.994 1.994 0 0 0-.827-.056m3.654 6.83C9.609 10.578 10.88 11.984 10.88 12c0 .025-5.434 6.002-5.764 6.339L5 18.458V5.542l.116.119c.065.065 1.388 1.512 2.94 3.214m2.864-1.236c1.309.753 2.428 1.399 2.487 1.435l.107.066-.613.674c-.337.37-.622.676-.634.68-.025.007-3.987-4.325-3.987-4.358 0-.013.058.013.13.056.072.044 1.201.695 2.51 1.447m6 3.453c.803.462 1.483.857 1.51.879.037.028-.388.292-1.539.954l-1.589.915-.088-.09c-.272-.279-1.574-1.727-1.574-1.75 0-.015.371-.434.825-.932.759-.832.833-.901.91-.86.047.025.742.423 1.545.884M12.916 14.2c.33.363.587.671.572.684-.015.013-1.132.658-2.482 1.433l-2.6 1.496-.146.085.06-.086c.148-.212 3.942-4.326 3.967-4.3.016.015.298.325.629.688" fill-rule="evenodd" fill="#000" stroke="none"/></svg>