<svg xmlns="http://www.w3.org/2000/svg" width="24" height="24" fill="none" stroke="currentColor" stroke-width="2" stroke-linecap="round" stroke-linejoin="round" class="icon icon-tabler icons-tabler-outline icon-tabler-send"><path d="M20.52 2.104c-.143.055-4.202 1.522-9.02 3.261C6.682 7.103 2.645 8.573 2.529 8.63c-.268.132-.583.464-.721.76-.093.199-.107.282-.108.611 0 .349.011.403.129.643.26.529.176.478 3.996 2.389l3.435 1.719 1.712 3.429c1.905 3.814 1.855 3.729 2.384 3.99.24.118.295.129.644.129.35 0 .404-.011.647-.131.344-.169.672-.516.793-.838.048-.127 1.488-4.11 3.2-8.851 1.713-4.741 3.169-8.77 3.237-8.953.153-.412.16-.667.028-.947-.247-.523-.784-.707-1.385-.476M13.45 9.13 9.8 12.78l-2.71-1.355-2.71-1.356.2-.075c.37-.139 12.48-4.511 12.5-4.513.011 0-1.623 1.641-3.63 3.649m4.893-1.72a10549.2 10549.2 0 0 1-4.375 12.11c-.033.089-.193-.211-1.393-2.61L11.22 14.2l3.64-3.64c2.002-2.002 3.644-3.64 3.649-3.64.005 0-.069.22-.166.49" fill="#000" fill-rule="evenodd" stroke="none"/></svg>