<svg xmlns="http://www.w3.org/2000/svg" width="24" height="24" fill="none" stroke="currentColor" stroke-width="2" stroke-linecap="round" stroke-linejoin="round" class="icon icon-tabler icons-tabler-outline icon-tabler-share"><path d="M17.358 2.061c-1.128.176-2.215.913-2.789 1.892a3.867 3.867 0 0 0-.553 2.187c.013.264.028.524.034.577.009.09-.169.189-2.499 1.391L9.042 9.402l-.147-.163c-.348-.385-1.066-.835-1.65-1.035A5.111 5.111 0 0 0 6 8c-1.365 0-2.747.787-3.431 1.953a3.992 3.992 0 0 0 1.943 5.751C4.96 15.884 5.541 16 6 16c.659 0 1.488-.229 2.044-.564.269-.162.716-.52.874-.7l.119-.136 2.512 1.296c2.304 1.189 2.51 1.304 2.501 1.39-.006.052-.021.31-.034.574-.02.4-.009.55.063.899.281 1.364 1.165 2.434 2.433 2.945a3.988 3.988 0 0 0 5.192-2.216 3.963 3.963 0 0 0 .001-2.972 4.024 4.024 0 0 0-2.46-2.312A5.111 5.111 0 0 0 18 14c-.322 0-.951.103-1.245.204-.584.2-1.302.65-1.65 1.035l-.147.163-2.509-1.294-2.509-1.295.02-.176c.011-.097.02-.384.02-.637s-.009-.539-.02-.635l-.02-.174 2.511-1.296 2.511-1.296.12.137c.158.18.605.538.874.7.119.072.369.192.556.268a3.988 3.988 0 0 0 5.192-2.216 3.963 3.963 0 0 0 .001-2.972 3.978 3.978 0 0 0-3.1-2.458 3.728 3.728 0 0 0-1.247.003m1.165 2.012a2.011 2.011 0 0 1 1.444 1.617c.1.653-.094 1.243-.564 1.714C19.002 7.807 18.547 8 18 8s-1.003-.194-1.402-.596c-1.439-1.446-.051-3.847 1.925-3.331m-12 6c1.187.31 1.803 1.664 1.271 2.795-.155.329-.557.751-.864.907a1.976 1.976 0 0 1-2.277-.31c-1.33-1.236-.464-3.46 1.347-3.46.143 0 .378.031.523.068m12 6a2.011 2.011 0 0 1 1.444 1.617c.1.653-.094 1.243-.564 1.714-.401.403-.856.596-1.403.596-.515 0-.962-.178-1.347-.535a1.973 1.973 0 0 1-.112-2.818A1.97 1.97 0 0 1 18 16.005c.143 0 .378.031.523.068" fill="#000" fill-rule="evenodd" stroke="none"/></svg>